<svg width="120" height="120" viewBox="0 0 120 120" fill="none" xmlns="http://www.w3.org/2000/svg">
<path d="M24.9608 7.9624C24.9608 7.9624 -16.707 44.5486 15.8143 91.6366C15.8143 91.6366 29.5339 114.636 63.4102 114.739C63.4102 114.739 89.3254 117.252 111.007 89.9631C111.007 89.9631 105.587 86.4179 95.7618 96.4793C86.136 106.34 64.7188 106.945 58.1235 96.2887C57.9457 96.0007 58.1802 95.6352 58.5157 95.6771C59.6585 95.8174 62.2189 96.2835 67.2213 97.8188C74.6741 100.105 81.9572 99.2589 83.4818 89.6887C83.4818 89.6887 72.6417 90.2814 68.6608 87.4024C64.6806 84.5223 55.0258 76.3924 47.5731 76.7312C40.1204 77.0699 29.8727 79.0177 23.9446 73.682C18.0163 68.3467 -2.25318 57.0828 24.9608 7.9624Z" fill="#094915"/>
<path d="M72.6133 116.026C72.6133 116.026 93.736 113.84 112.029 93.0619C112.029 93.0619 115.071 90.562 117.334 93.1949C117.334 93.1949 118.741 94.1763 115.796 96.3169C113.854 97.7287 87.6316 119.752 72.6133 116.026Z" fill="#308A28"/>
<path d="M86.4453 116.448C86.4453 116.448 104.964 107.557 115.325 99.4503C115.325 99.4503 118.232 97.959 119.136 99.088C120.039 100.217 117.679 102.25 117.679 102.25C117.679 102.25 108.747 110.041 86.4453 116.448Z" fill="#308A28"/>
<path d="M101.339 24.7394C102.095 25.1578 102.702 25.7529 103.33 26.3267C103.863 26.8357 103.947 27.3228 103.454 27.9119C102.843 28.6416 102.769 29.3567 102.973 30.2911C103.313 31.8469 103.172 33.4194 102.448 34.8889V34.8883C102.261 35.4268 102.007 35.9237 101.579 36.3148C101.143 36.9279 100.528 37.3364 99.922 37.7526C99.3115 38.3167 98.6496 38.8097 97.9083 39.1911C96.3079 40.4941 94.0481 40.5318 92.9052 39.0546C92.2719 38.237 91.8192 38.3471 91.0627 38.6586C90.1615 39.0296 89.1928 39.1976 88.206 39.1911L88.158 39.1892C88.0756 39.1859 87.9931 39.1827 87.911 39.179C87.8216 39.1889 87.7326 39.1981 87.6431 39.2079C87.5205 39.2106 87.3982 39.2112 87.276 39.2134C86.3836 39.3749 85.481 39.2958 84.5825 39.3105C84.5231 39.3492 84.4745 39.4048 84.4467 39.49C84.3572 39.7615 84.3878 40.0376 84.6458 40.2367C84.9229 40.4511 85.2273 40.6223 85.5284 40.7979C87.6055 42.0078 89.6685 43.2422 91.6359 44.625C92.7771 45.4268 93.9007 46.2624 94.7965 47.3529C95.1989 47.8432 95.4799 48.3849 95.4772 49.053C95.475 49.5571 95.8191 49.8691 96.2452 50.0344C97.0006 50.3273 97.7283 50.6714 98.4412 51.0527C98.4453 51.055 98.4506 51.0577 98.4558 51.0604L98.459 50.9965C99.2957 51.3287 100.033 51.8175 100.691 52.4295C101.219 52.723 101.623 53.1523 101.917 53.6644C102.391 54.4864 101.918 55.2998 100.974 55.3265C99.854 55.3581 98.9229 54.8181 97.9797 54.3223C96.7595 53.6802 95.6173 52.892 94.3327 52.3739C93.2571 51.9402 92.6315 52.2986 92.4324 53.431L92.4316 53.4357C92.4093 53.5608 92.3869 53.6873 92.3838 53.8133C92.368 54.5116 92.1694 55.1535 91.8144 55.7508L91.8138 55.7514H91.8144C91.69 56.1442 91.4483 56.4191 91.0371 56.5232C90.7741 56.7202 90.5036 56.9029 90.1774 56.9814C89.3259 57.4271 88.3991 57.5188 87.462 57.552C84.9126 57.6436 82.4547 57.2323 80.1146 56.1905C79.3493 55.8845 78.6397 55.4808 78.0593 54.8912C77.402 54.2246 76.9586 54.1772 76.2014 54.7482C75.8992 54.9762 75.6336 55.2698 75.2224 55.3052C74.6316 55.59 74.2683 55.9271 74.4407 56.7131C74.6032 57.456 74.2977 58.2038 74.037 58.9119C73.6601 59.9368 73.1545 60.8951 72.4503 61.7396C72.0526 62.2163 72.0286 62.7219 72.3019 63.2799C73.377 65.476 73.8995 67.8117 74.0136 70.2461C74.0212 70.4108 73.9879 70.5957 74.1227 70.7168C74.6299 71.1745 74.6316 71.8073 74.6746 72.4007C74.7783 73.8178 74.6916 75.2333 74.5247 76.6434C74.3845 77.8325 74.5116 78.9894 74.9163 80.118C75.1416 80.7474 75.2245 81.403 75.2305 82.0691C75.2523 84.4988 75.3254 86.9306 74.9987 89.3499C74.8956 89.4944 74.7455 89.4777 74.5988 89.4609C73.0606 89.2829 71.5382 89.0368 70.1003 88.422C69.9313 88.3497 69.7518 88.2921 69.6073 88.178L69.5519 88.134C68.4178 87.2375 67.2834 86.341 66.208 85.3744C66.1577 85.2895 66.1016 85.211 66.0415 85.1377L61.5562 81.9832C61.5463 81.9769 61.5365 81.9696 61.5261 81.9612C60.3327 81.2815 59.1387 80.6008 57.9452 79.9206C58.0974 79.8305 58.1105 79.6892 58.0794 79.537C57.9109 78.7096 57.7892 77.8712 57.4821 77.0776C57.2045 76.8714 57.2339 76.5261 57.1373 76.2484C56.7485 75.1319 56.1784 74.1129 55.5599 73.1158C54.6626 71.9431 54.3135 70.6471 54.6838 69.1923C54.7384 68.9779 54.7733 68.7652 54.7918 68.5437C54.8884 67.3807 56.114 66.6345 57.2399 66.9848C58.2463 67.2973 59.2897 67.3344 60.336 67.1937C60.9501 67.1107 61.5616 67.0704 62.1475 66.7976C63.2269 66.2942 64.1804 65.6194 64.9577 64.7368C65.7918 63.7895 66.6427 62.849 67.3605 61.805C68.1787 60.6153 68.3723 58.6385 67.6092 57.3311C67.4025 56.9759 67.2459 56.5794 67.0506 56.2096C66.5412 55.6139 65.8299 55.3025 65.1955 54.8814C64.481 54.4063 64.2705 53.959 64.5306 53.1773C64.8939 52.0886 64.9021 51.0413 64.4188 49.9968L64.4199 50.0011C63.8286 49.3351 63.2373 48.6696 62.646 48.0035L62.6509 48.0096C61.9631 47.6774 61.4247 47.1243 60.7718 46.737C60.5373 46.5985 60.192 46.581 60.0987 46.2423C59.4779 46.2046 59.0247 45.7519 58.4514 45.574C57.9114 45.4066 57.3806 45.2277 56.8194 45.1432C55.3423 44.9217 54.3543 44.0413 53.6567 42.7764C53.5858 42.6477 53.5187 42.5178 53.45 42.3886C53.3572 42.2184 53.2869 42.0455 53.2307 41.8687C52.9983 41.2719 52.9405 40.642 52.9667 39.9912C52.9094 39.1304 52.9198 38.2681 52.9127 37.4068C52.88 36.8575 52.8505 36.3083 52.8538 35.759C52.8412 35.5854 52.8254 35.412 52.8058 35.2386C52.7403 34.6625 52.3105 34.8055 52.035 34.8246C50.4832 34.9353 49.1566 35.5898 48.0041 36.6169C47.8818 36.726 47.7783 36.8656 47.5867 36.8466V36.8471C46.8373 37.4591 46.2656 38.2381 45.6225 38.9493C45.5467 39.0333 45.4839 39.1299 45.412 39.2166C45.364 39.2909 45.3176 39.3661 45.2729 39.443C44.6211 40.5029 43.7958 41.4384 43.0998 42.4687C42.5788 43.2395 42.0355 43.9983 41.4906 44.7542C41.4028 44.8601 41.3216 44.9703 41.243 45.0821C40.9724 45.634 40.5873 46.1119 40.1903 46.5827C40.0565 46.7924 39.9228 47.0022 39.7891 47.2119L39.6322 47.4581C39.1773 48.4651 38.5789 49.383 37.9118 50.2596C37.9004 50.2858 37.8823 50.311 37.8551 50.3349C37.5272 50.7931 37.2317 51.2704 36.9845 51.7765C36.7822 52.3461 36.5683 52.9085 36.0932 53.3203C36.0244 53.7654 35.791 54.1412 35.557 54.5066C35.0317 55.3265 34.741 56.2641 34.2239 57.0861C34.2136 57.114 34.2075 57.1434 34.2059 57.1728V57.1735C34.2217 57.5739 34.0221 57.9153 33.9021 58.2786C33.6386 59.0799 33.4985 59.9095 33.313 60.7288C33.0643 61.8268 33.1406 62.9199 33.1204 64.018C33.1134 64.4053 32.9333 64.6343 32.5542 64.7086C32.0911 65.1122 31.7028 65.5998 31.5647 66.1857C31.3602 67.0573 30.7651 67.497 30.0587 67.8547C29.9878 67.9011 29.9164 67.9464 29.8438 67.9917C29.7855 68.0282 29.727 68.0659 29.6687 68.103C28.6639 68.8219 27.6571 69.5392 26.655 70.2635C26.1805 70.6066 25.7174 70.9672 25.2493 71.3201C25.2488 71.3201 25.2488 71.3207 25.2488 71.3207C25.2325 71.3562 25.2128 71.3768 25.191 71.3878C24.7644 71.8896 24.2872 72.3341 23.7144 72.6701C23.7152 72.7354 23.7167 72.801 23.7181 72.8664L23.7187 72.8965C23.7144 73.0487 23.7094 73.2053 23.7056 73.3569C23.6156 73.3466 23.5366 73.317 23.4951 73.2276C23.3909 73.2265 23.3615 73.1796 23.2775 73.0831C21.7606 72.1678 20.4258 71.0213 19.1673 69.7868C16.8638 67.5269 15.0268 64.9387 13.7634 61.9577C13.6467 61.8748 13.6565 61.7466 13.6445 61.6261C14.3695 60.8695 14.8702 59.9395 15.5542 59.1502C15.8062 58.8595 16.0074 58.5093 16.302 58.2737C17.1132 57.6251 17.321 56.7682 17.4388 55.7819C17.6717 53.8276 18.2707 52.0363 19.7505 50.5728C21.7191 48.6249 23.5633 46.551 25.4642 44.5344C25.6759 44.3103 25.8859 44.0784 26.1717 43.9403C26.6894 43.5498 27.0428 42.9613 27.6668 42.6989C28.3356 42.4791 28.6204 41.945 28.8832 41.3363C29.4511 40.0223 30.2131 38.8114 31.0154 37.6277C31.3896 36.8477 31.8789 36.1604 32.5962 35.6553C32.6589 35.5757 32.7212 35.496 32.7839 35.4159C33.0206 34.9189 33.3921 34.5556 33.8803 34.3074C34.0024 34.2 34.1246 34.0925 34.2469 33.9851C35.2804 33.0812 36.3932 32.2816 37.494 31.4639C38.9133 30.4096 39.168 28.9553 38.2326 27.4537C37.6418 26.5045 37.2414 25.4954 37.2157 24.3614C36.9638 21.3635 38.4475 19.0551 41.2735 18.0476C42.096 17.5687 42.9306 17.1089 43.7379 16.6065C44.8556 15.911 45.9744 15.2122 46.935 14.2981C47.1171 14.0651 47.266 13.7919 47.6064 13.7548V13.7564C47.8327 13.3844 48.1518 13.1248 48.5452 12.9393C49.0677 12.6938 49.4703 12.7773 49.7348 13.2917C49.9198 13.6517 50.1412 13.6768 50.4434 13.5164C50.7826 13.3364 51.1148 13.146 51.4132 12.8963C53.4151 11.2189 55.7568 10.2731 58.291 9.77667C60.0152 9.43902 61.7558 9.19908 63.5209 9.21814C65.3603 9.21867 67.2023 9.15373 69.0378 9.23616C71.7629 9.3589 74.4968 9.39702 77.2051 9.77394C79.1448 10.0439 80.9841 10.6352 82.723 11.5451C83.3492 11.8724 84.0392 12.0894 84.5105 12.6617C84.6336 12.7596 84.7564 12.8573 84.8793 12.9548L85.0609 13.0991C85.4738 13.1994 85.7182 13.4716 85.8448 13.865V13.8633C86.268 14.159 86.4497 14.5861 86.5064 15.0808C86.7039 15.4261 86.7502 15.8013 86.7279 16.1903C86.8015 16.2628 86.8756 16.3354 86.9493 16.4074C87.4517 16.3894 87.9404 16.475 88.4258 16.589C88.4586 16.5841 88.4908 16.5907 88.5219 16.6114C89.9565 16.9643 90.449 18.0923 90.7076 19.3584C90.9094 20.3467 90.9907 21.358 90.9329 22.3716C90.9099 22.7676 91.0545 22.9345 91.4701 22.9328C92.7384 22.9268 94.011 22.8537 95.2726 23.0326C96.117 23.1521 96.9968 23.0779 97.7916 23.4777C99.0182 23.7756 100.224 24.1224 101.339 24.7394Z" fill="#F8BF18"/>
</svg>
